<svg width="240" height="240" viewBox="0 0 240 240" fill="none" xmlns="http://www.w3.org/2000/svg">
<g filter="url(#filter0_f_1_4922)">
<circle cx="120" cy="120" r="100" fill="url(#paint0_angular_1_4922)" fill-opacity="0.4"/>
</g>
<g filter="url(#filter1_f_1_4922)">
<circle cx="120" cy="120" r="100" fill="url(#paint1_angular_1_4922)" fill-opacity="0.8"/>
</g>
<g filter="url(#filter2_iii_1_4922)">
<circle cx="120" cy="120" r="100" fill="#030124"/>
<circle cx="120" cy="120" r="100" fill="url(#paint2_radial_1_4922)" fill-opacity="0.9"/>
<circle cx="120" cy="120" r="100" fill="url(#paint3_radial_1_4922)" fill-opacity="0.85"/>
<circle cx="120" cy="120" r="100" fill="url(#paint4_radial_1_4922)" fill-opacity="0.8"/>
<circle cx="120" cy="120" r="100" fill="url(#paint5_radial_1_4922)" fill-opacity="0.45"/>
</g>
<mask id="mask0_1_4922" style="mask-type:alpha" maskUnits="userSpaceOnUse" x="20" y="20" width="200" height="200">
<circle cx="120" cy="120" r="100" fill="url(#paint6_radial_1_4922)"/>
</mask>
<g mask="url(#mask0_1_4922)">
<g style="mix-blend-mode:plus-lighter" filter="url(#filter3_di_1_4922)">
<path d="M79.8486 120.862C77.2982 122.519 74.3962 122.944 70.7097 120.862H22C22 120.862 32.7014 119.586 45.9858 119.586C59.2703 119.586 63.6478 116.875 70.7097 120.862H79.8486C89.8076 114.392 94.4058 89.1269 119.419 120.862H151.271C155.542 112.337 159.723 103.079 167.391 102.997C174.577 102.921 182.521 119.586 191.008 119.586C199.495 119.586 216.839 120.862 216.839 120.862H151.271C144.869 133.643 138.267 144.775 119.419 120.862H79.8486Z" fill="url(#paint7_radial_1_4922)" shape-rendering="crispEdges"/>
<path d="M79.8486 120.862C77.2982 122.519 74.3962 122.944 70.7097 120.862H22C22 120.862 32.7014 119.586 45.9858 119.586C59.2703 119.586 63.6478 116.875 70.7097 120.862H79.8486C89.8076 114.392 94.4058 89.1269 119.419 120.862H151.271C155.542 112.337 159.723 103.079 167.391 102.997C174.577 102.921 182.521 119.586 191.008 119.586C199.495 119.586 216.839 120.862 216.839 120.862H151.271C144.869 133.643 138.267 144.775 119.419 120.862H79.8486Z" fill="url(#paint8_radial_1_4922)" shape-rendering="crispEdges"/>
</g>
<g style="mix-blend-mode:plus-lighter" filter="url(#filter4_dif_1_4922)">
<path d="M70.5 120.887C73.284 113.589 75.9765 115.494 78.7938 120.887L110.617 120.887C134 29.0001 143 130 190.28 118.172C198.478 116.121 216 120.887 216 120.887L110.617 120.887C95.7404 179.345 86.7674 136.149 78.7938 120.887L70.5 120.887C59.8364 148.839 57.1326 120.887 43.9053 120.887H70.5Z" fill="url(#paint9_radial_1_4922)" shape-rendering="crispEdges"/>
<path d="M70.5 120.887C73.284 113.589 75.9765 115.494 78.7938 120.887L110.617 120.887C134 29.0001 143 130 190.28 118.172C198.478 116.121 216 120.887 216 120.887L110.617 120.887C95.7404 179.345 86.7674 136.149 78.7938 120.887L70.5 120.887C59.8364 148.839 57.1326 120.887 43.9053 120.887H70.5Z" fill="url(#paint10_radial_1_4922)" shape-rendering="crispEdges"/>
</g>
<g style="mix-blend-mode:plus-lighter" filter="url(#filter5_di_1_4922)">
<path d="M119.419 120.863C94 138 83.4194 133.725 70.7097 120.863H22C22 120.863 32.7014 119.587 45.9858 119.587C59.2703 119.587 58 108 70.7097 120.863H119.419C146.57 102.558 161.624 119.587 191.008 119.587C199.495 119.587 216.839 120.863 216.839 120.863H119.419Z" fill="url(#paint11_radial_1_4922)" shape-rendering="crispEdges"/>
<path d="M119.419 120.863C94 138 83.4194 133.725 70.7097 120.863H22C22 120.863 32.7014 119.587 45.9858 119.587C59.2703 119.587 58 108 70.7097 120.863H119.419C146.57 102.558 161.624 119.587 191.008 119.587C199.495 119.587 216.839 120.863 216.839 120.863H119.419Z" fill="url(#paint12_radial_1_4922)" shape-rendering="crispEdges"/>
</g>
<g style="mix-blend-mode:plus-lighter" filter="url(#filter6_di_1_4922)">
<path d="M102.3 121.087C91.5756 136.275 80.2509 162.577 70.891 121.087H36.0521C49.386 121.087 56.1266 55.6409 70.891 121.087H102.3C108.492 112.318 114.484 107.254 119.782 121.087H197.645C200.761 120.627 204.098 120.59 207.688 121.087H217.564C217.564 121.087 255.867 127.764 207.689 121.087C207.688 121.087 207.688 121.087 207.688 121.087H197.645C158.943 126.805 154.226 197.821 119.782 121.087H102.3Z" fill="url(#paint13_radial_1_4922)" shape-rendering="crispEdges"/>
<path d="M102.3 121.087C91.5756 136.275 80.2509 162.577 70.891 121.087H36.0521C49.386 121.087 56.1266 55.6409 70.891 121.087H102.3C108.492 112.318 114.484 107.254 119.782 121.087H197.645C200.761 120.627 204.098 120.59 207.688 121.087H217.564C217.564 121.087 255.867 127.764 207.689 121.087C207.688 121.087 207.688 121.087 207.688 121.087H197.645C158.943 126.805 154.226 197.821 119.782 121.087H102.3Z" fill="url(#paint14_radial_1_4922)" shape-rendering="crispEdges"/>
</g>
<g style="mix-blend-mode:plus-lighter" filter="url(#filter7_di_1_4922)">
<path d="M215 120C215 118.896 135 68.8943 88 124.894C41 180.894 20 116.896 20 118C20 118.36 26 118 39 118C62.9522 114.888 104.659 110.402 135 134C180 169 215 121.105 215 120Z" fill="url(#paint15_radial_1_4922)" shape-rendering="crispEdges"/>
<path d="M215 120C215 118.896 135 68.8943 88 124.894C41 180.894 20 116.896 20 118C20 118.36 26 118 39 118C62.9522 114.888 104.659 110.402 135 134C180 169 215 121.105 215 120Z" fill="url(#paint16_radial_1_4922)" shape-rendering="crispEdges"/>
</g>
<g style="mix-blend-mode:plus-lighter" filter="url(#filter8_di_1_4922)">
<path d="M220 120C220 121.104 153 122 120 122C87 122 20 121.104 20 120C20 118.895 64 105 120 118C176 131 220 118.895 220 120Z" fill="url(#paint17_radial_1_4922)" shape-rendering="crispEdges"/>
<path d="M220 120C220 121.104 153 122 120 122C87 122 20 121.104 20 120C20 118.895 64 105 120 118C176 131 220 118.895 220 120Z" fill="url(#paint18_radial_1_4922)" fill-opacity="0.5" shape-rendering="crispEdges"/>
</g>
</g>
<defs>
<filter id="filter0_f_1_4922" x="0" y="0" width="240" height="240" filterUnits="userSpaceOnUse" color-interpolation-filters="sRGB">
<feFlood flood-opacity="0" result="BackgroundImageFix"/>
<feBlend mode="normal" in="SourceGraphic" in2="BackgroundImageFix" result="shape"/>
<feGaussianBlur stdDeviation="10" result="effect1_foregroundBlur_1_4922"/>
</filter>
<filter id="filter1_f_1_4922" x="15" y="15" width="210" height="210" filterUnits="userSpaceOnUse" color-interpolation-filters="sRGB">
<feFlood flood-opacity="0" result="BackgroundImageFix"/>
<feBlend mode="normal" in="SourceGraphic" in2="BackgroundImageFix" result="shape"/>
<feGaussianBlur stdDeviation="2.5" result="effect1_foregroundBlur_1_4922"/>
</filter>
<filter id="filter2_iii_1_4922" x="20" y="20" width="200" height="200" filterUnits="userSpaceOnUse" color-interpolation-filters="sRGB">
<feFlood flood-opacity="0" result="BackgroundImageFix"/>
<feBlend mode="normal" in="SourceGraphic" in2="BackgroundImageFix" result="shape"/>
<feColorMatrix in="SourceAlpha" type="matrix" values="0 0 0 0 0 0 0 0 0 0 0 0 0 0 0 0 0 0 127 0" result="hardAlpha"/>
<feOffset/>
<feGaussianBlur stdDeviation="20"/>
<feComposite in2="hardAlpha" operator="arithmetic" k2="-1" k3="1"/>
<feColorMatrix type="matrix" values="0 0 0 0 0.185021 0 0 0 0 0.156042 0 0 0 0 0.735625 0 0 0 1 0"/>
<feBlend mode="normal" in2="shape" result="effect1_innerShadow_1_4922"/>
<feColorMatrix in="SourceAlpha" type="matrix" values="0 0 0 0 0 0 0 0 0 0 0 0 0 0 0 0 0 0 127 0" result="hardAlpha"/>
<feOffset/>
<feGaussianBlur stdDeviation="15"/>
<feComposite in2="hardAlpha" operator="arithmetic" k2="-1" k3="1"/>
<feColorMatrix type="matrix" values="0 0 0 0 0.2075 0 0 0 0 0.175 0 0 0 0 0.825 0 0 0 1 0"/>
<feBlend mode="normal" in2="effect1_innerShadow_1_4922" result="effect2_innerShadow_1_4922"/>
<feColorMatrix in="SourceAlpha" type="matrix" values="0 0 0 0 0 0 0 0 0 0 0 0 0 0 0 0 0 0 127 0" result="hardAlpha"/>
<feOffset/>
<feGaussianBlur stdDeviation="6"/>
<feComposite in2="hardAlpha" operator="arithmetic" k2="-1" k3="1"/>
<feColorMatrix type="matrix" values="0 0 0 0 0.791969 0 0 0 0 0.783437 0 0 0 0 0.954063 0 0 0 1 0"/>
<feBlend mode="normal" in2="effect2_innerShadow_1_4922" result="effect3_innerShadow_1_4922"/>
</filter>
<filter id="filter3_di_1_4922" x="13" y="94.9971" width="212.839" height="49.9287" filterUnits="userSpaceOnUse" color-interpolation-filters="sRGB">
<feFlood flood-opacity="0" result="BackgroundImageFix"/>
<feColorMatrix in="SourceAlpha" type="matrix" values="0 0 0 0 0 0 0 0 0 0 0 0 0 0 0 0 0 0 127 0" result="hardAlpha"/>
<feOffset dy="1"/>
<feGaussianBlur stdDeviation="4.5"/>
<feComposite in2="hardAlpha" operator="out"/>
<feColorMatrix type="matrix" values="0 0 0 0 0.426944 0 0 0 0 0.966667 0 0 0 0 0.966667 0 0 0 0.8 0"/>
<feBlend mode="normal" in2="BackgroundImageFix" result="effect1_dropShadow_1_4922"/>
<feBlend mode="normal" in="SourceGraphic" in2="effect1_dropShadow_1_4922" result="shape"/>
<feColorMatrix in="SourceAlpha" type="matrix" values="0 0 0 0 0 0 0 0 0 0 0 0 0 0 0 0 0 0 127 0" result="hardAlpha"/>
<feOffset/>
<feGaussianBlur stdDeviation="1"/>
<feComposite in2="hardAlpha" operator="arithmetic" k2="-1" k3="1"/>
<feColorMatrix type="matrix" values="0 0 0 0 0.900833 0 0 0 0 0.854167 0 0 0 0 1 0 0 0 1 0"/>
<feBlend mode="normal" in2="shape" result="effect2_innerShadow_1_4922"/>
</filter>
<filter id="filter4_dif_1_4922" x="34.9053" y="73.9121" width="190.095" height="86.6914" filterUnits="userSpaceOnUse" color-interpolation-filters="sRGB">
<feFlood flood-opacity="0" result="BackgroundImageFix"/>
<feColorMatrix in="SourceAlpha" type="matrix" values="0 0 0 0 0 0 0 0 0 0 0 0 0 0 0 0 0 0 127 0" result="hardAlpha"/>
<feOffset dy="1"/>
<feGaussianBlur stdDeviation="4.5"/>
<feComposite in2="hardAlpha" operator="out"/>
<feColorMatrix type="matrix" values="0 0 0 0 0.426944 0 0 0 0 0.578067 0 0 0 0 0.966667 0 0 0 0.8 0"/>
<feBlend mode="normal" in2="BackgroundImageFix" result="effect1_dropShadow_1_4922"/>
<feBlend mode="normal" in="SourceGraphic" in2="effect1_dropShadow_1_4922" result="shape"/>
<feColorMatrix in="SourceAlpha" type="matrix" values="0 0 0 0 0 0 0 0 0 0 0 0 0 0 0 0 0 0 127 0" result="hardAlpha"/>
<feOffset/>
<feGaussianBlur stdDeviation="1"/>
<feComposite in2="hardAlpha" operator="arithmetic" k2="-1" k3="1"/>
<feColorMatrix type="matrix" values="0 0 0 0 0.416083 0 0 0 0 0.404167 0 0 0 0 1 0 0 0 1 0"/>
<feBlend mode="normal" in2="shape" result="effect2_innerShadow_1_4922"/>
<feGaussianBlur stdDeviation="0.25" result="effect3_foregroundBlur_1_4922"/>
</filter>
<filter id="filter5_di_1_4922" x="13" y="104.383" width="212.839" height="37.7861" filterUnits="userSpaceOnUse" color-interpolation-filters="sRGB">
<feFlood flood-opacity="0" result="BackgroundImageFix"/>
<feColorMatrix in="SourceAlpha" type="matrix" values="0 0 0 0 0 0 0 0 0 0 0 0 0 0 0 0 0 0 127 0" result="hardAlpha"/>
<feOffset dy="1"/>
<feGaussianBlur stdDeviation="4.5"/>
<feComposite in2="hardAlpha" operator="out"/>
<feColorMatrix type="matrix" values="0 0 0 0 0.664422 0 0 0 0 0.426944 0 0 0 0 0.966667 0 0 0 0.8 0"/>
<feBlend mode="normal" in2="BackgroundImageFix" result="effect1_dropShadow_1_4922"/>
<feBlend mode="normal" in="SourceGraphic" in2="effect1_dropShadow_1_4922" result="shape"/>
<feColorMatrix in="SourceAlpha" type="matrix" values="0 0 0 0 0 0 0 0 0 0 0 0 0 0 0 0 0 0 127 0" result="hardAlpha"/>
<feOffset/>
<feGaussianBlur stdDeviation="1"/>
<feComposite in2="hardAlpha" operator="arithmetic" k2="-1" k3="1"/>
<feColorMatrix type="matrix" values="0 0 0 0 0.900833 0 0 0 0 0.854167 0 0 0 0 1 0 0 0 1 0"/>
<feBlend mode="normal" in2="shape" result="effect2_innerShadow_1_4922"/>
</filter>
<filter id="filter6_di_1_4922" x="27.0522" y="84" width="213.948" height="82.498" filterUnits="userSpaceOnUse" color-interpolation-filters="sRGB">
<feFlood flood-opacity="0" result="BackgroundImageFix"/>
<feColorMatrix in="SourceAlpha" type="matrix" values="0 0 0 0 0 0 0 0 0 0 0 0 0 0 0 0 0 0 127 0" result="hardAlpha"/>
<feOffset dy="1"/>
<feGaussianBlur stdDeviation="4.5"/>
<feComposite in2="hardAlpha" operator="out"/>
<feColorMatrix type="matrix" values="0 0 0 0 0.664422 0 0 0 0 0.426944 0 0 0 0 0.966667 0 0 0 0.8 0"/>
<feBlend mode="normal" in2="BackgroundImageFix" result="effect1_dropShadow_1_4922"/>
<feBlend mode="normal" in="SourceGraphic" in2="effect1_dropShadow_1_4922" result="shape"/>
<feColorMatrix in="SourceAlpha" type="matrix" values="0 0 0 0 0 0 0 0 0 0 0 0 0 0 0 0 0 0 127 0" result="hardAlpha"/>
<feOffset/>
<feGaussianBlur stdDeviation="1"/>
<feComposite in2="hardAlpha" operator="arithmetic" k2="-1" k3="1"/>
<feColorMatrix type="matrix" values="0 0 0 0 0.900833 0 0 0 0 0.854167 0 0 0 0 1 0 0 0 1 0"/>
<feBlend mode="normal" in2="shape" result="effect2_innerShadow_1_4922"/>
</filter>
<filter id="filter7_di_1_4922" x="11" y="90.3994" width="213" height="67.498" filterUnits="userSpaceOnUse" color-interpolation-filters="sRGB">
<feFlood flood-opacity="0" result="BackgroundImageFix"/>
<feColorMatrix in="SourceAlpha" type="matrix" values="0 0 0 0 0 0 0 0 0 0 0 0 0 0 0 0 0 0 127 0" result="hardAlpha"/>
<feOffset dy="1"/>
<feGaussianBlur stdDeviation="4.5"/>
<feComposite in2="hardAlpha" operator="out"/>
<feColorMatrix type="matrix" values="0 0 0 0 0.664422 0 0 0 0 0.426944 0 0 0 0 0.966667 0 0 0 0.8 0"/>
<feBlend mode="normal" in2="BackgroundImageFix" result="effect1_dropShadow_1_4922"/>
<feBlend mode="normal" in="SourceGraphic" in2="effect1_dropShadow_1_4922" result="shape"/>
<feColorMatrix in="SourceAlpha" type="matrix" values="0 0 0 0 0 0 0 0 0 0 0 0 0 0 0 0 0 0 127 0" result="hardAlpha"/>
<feOffset/>
<feGaussianBlur stdDeviation="1"/>
<feComposite in2="hardAlpha" operator="arithmetic" k2="-1" k3="1"/>
<feColorMatrix type="matrix" values="0 0 0 0 0.416083 0 0 0 0 0.404167 0 0 0 0 1 0 0 0 1 0"/>
<feBlend mode="normal" in2="shape" result="effect2_innerShadow_1_4922"/>
</filter>
<filter id="filter8_di_1_4922" x="11" y="104.48" width="218" height="29.5869" filterUnits="userSpaceOnUse" color-interpolation-filters="sRGB">
<feFlood flood-opacity="0" result="BackgroundImageFix"/>
<feColorMatrix in="SourceAlpha" type="matrix" values="0 0 0 0 0 0 0 0 0 0 0 0 0 0 0 0 0 0 127 0" result="hardAlpha"/>
<feOffset dy="1"/>
<feGaussianBlur stdDeviation="4.5"/>
<feComposite in2="hardAlpha" operator="out"/>
<feColorMatrix type="matrix" values="0 0 0 0 0.91225 0 0 0 0 0.6625 0 0 0 0 1 0 0 0 0.8 0"/>
<feBlend mode="normal" in2="BackgroundImageFix" result="effect1_dropShadow_1_4922"/>
<feBlend mode="normal" in="SourceGraphic" in2="effect1_dropShadow_1_4922" result="shape"/>
<feColorMatrix in="SourceAlpha" type="matrix" values="0 0 0 0 0 0 0 0 0 0 0 0 0 0 0 0 0 0 127 0" result="hardAlpha"/>
<feOffset/>
<feGaussianBlur stdDeviation="1"/>
<feComposite in2="hardAlpha" operator="arithmetic" k2="-1" k3="1"/>
<feColorMatrix type="matrix" values="0 0 0 0 0.900833 0 0 0 0 0.854167 0 0 0 0 1 0 0 0 1 0"/>
<feBlend mode="normal" in2="shape" result="effect2_innerShadow_1_4922"/>
</filter>
<radialGradient id="paint0_angular_1_4922" cx="0" cy="0" r="1" gradientUnits="userSpaceOnUse" gradientTransform="translate(120 120) rotate(90) scale(100)">
<stop stop-color="#322CA4"/>
<stop offset="0.313665" stop-color="#370F69"/>
<stop offset="1" stop-color="white" stop-opacity="0"/>
</radialGradient>
<radialGradient id="paint1_angular_1_4922" cx="0" cy="0" r="1" gradientUnits="userSpaceOnUse" gradientTransform="translate(120 120) rotate(90) scale(100)">
<stop stop-color="#322CA4"/>
<stop offset="0.313665" stop-color="#370F69"/>
<stop offset="1" stop-color="white" stop-opacity="0"/>
</radialGradient>
<radialGradient id="paint2_radial_1_4922" cx="0" cy="0" r="1" gradientUnits="userSpaceOnUse" gradientTransform="translate(78 33) rotate(63.4457) scale(97.2598 115.376)">
<stop stop-color="#8F8AE6" stop-opacity="0.63"/>
<stop offset="1" stop-color="#2C25AD" stop-opacity="0"/>
</radialGradient>
<radialGradient id="paint3_radial_1_4922" cx="0" cy="0" r="1" gradientUnits="userSpaceOnUse" gradientTransform="translate(214.675 87.752) rotate(151.458) scale(88.4213)">
<stop stop-color="#3E36D4"/>
<stop offset="1" stop-color="#3029C0" stop-opacity="0"/>
</radialGradient>
<radialGradient id="paint4_radial_1_4922" cx="0" cy="0" r="1" gradientUnits="userSpaceOnUse" gradientTransform="translate(153.137 214.675) rotate(-108.939) scale(63.8096)">
<stop stop-color="#5B54DB"/>
<stop offset="1" stop-color="#5B55DB" stop-opacity="0"/>
</radialGradient>
<radialGradient id="paint5_radial_1_4922" cx="0" cy="0" r="1" gradientUnits="userSpaceOnUse" gradientTransform="translate(97 120) rotate(-19.7672) scale(68.0074 101.344)">
<stop stop-color="#2D26B2"/>
<stop offset="1" stop-color="#453DD6" stop-opacity="0"/>
</radialGradient>
<radialGradient id="paint6_radial_1_4922" cx="0" cy="0" r="1" gradientUnits="userSpaceOnUse" gradientTransform="translate(120 120) rotate(90) scale(100)">
<stop offset="0.095" stop-color="#D9D9D9"/>
<stop offset="0.99" stop-color="#D9D9D9" stop-opacity="0"/>
</radialGradient>
<radialGradient id="paint7_radial_1_4922" cx="0" cy="0" r="1" gradientUnits="userSpaceOnUse" gradientTransform="translate(119.419 123.424) rotate(90) scale(18.0491 102.087)">
<stop stop-color="#2542DD" stop-opacity="0"/>
<stop offset="1" stop-color="#361D80"/>
</radialGradient>
<radialGradient id="paint8_radial_1_4922" cx="0" cy="0" r="1" gradientUnits="userSpaceOnUse" gradientTransform="translate(22 126.746) scale(110.704 1488.41)">
<stop offset="0.297404" stop-color="#D1C1FF" stop-opacity="0.52"/>
<stop offset="1" stop-color="#D1C1FF" stop-opacity="0"/>
</radialGradient>
<radialGradient id="paint9_radial_1_4922" cx="0" cy="0" r="1" gradientUnits="userSpaceOnUse" gradientTransform="translate(119 111.874) rotate(90) scale(41.5947 101.647)">
<stop stop-color="#2542DD" stop-opacity="0"/>
<stop offset="1" stop-color="#11195F"/>
</radialGradient>
<radialGradient id="paint10_radial_1_4922" cx="0" cy="0" r="1" gradientUnits="userSpaceOnUse" gradientTransform="translate(22 119.53) scale(110.227 3430.09)">
<stop offset="0.297404" stop-color="#D1C1FF" stop-opacity="0.52"/>
<stop offset="1" stop-color="#D1C1FF" stop-opacity="0"/>
</radialGradient>
<radialGradient id="paint11_radial_1_4922" cx="0" cy="0" r="1" gradientUnits="userSpaceOnUse" gradientTransform="translate(119.419 123.97) rotate(90) scale(8.92811 102.087)">
<stop stop-color="#2542DD" stop-opacity="0"/>
<stop offset="1" stop-color="#361D80"/>
</radialGradient>
<radialGradient id="paint12_radial_1_4922" cx="0" cy="0" r="1" gradientUnits="userSpaceOnUse" gradientTransform="translate(22 125.613) scale(110.704 736.253)">
<stop offset="0.297404" stop-color="#D1C1FF" stop-opacity="0.52"/>
<stop offset="1" stop-color="#D1C1FF" stop-opacity="0"/>
</radialGradient>
<radialGradient id="paint13_radial_1_4922" cx="0" cy="0" r="1" gradientUnits="userSpaceOnUse" gradientTransform="translate(119.782 126.459) rotate(90) scale(15.4324 102.467)">
<stop stop-color="#2747F3" stop-opacity="0"/>
<stop offset="1" stop-color="#5B2DDF"/>
</radialGradient>
<radialGradient id="paint14_radial_1_4922" cx="0" cy="0" r="1" gradientUnits="userSpaceOnUse" gradientTransform="translate(22 129.299) scale(111.116 1272.62)">
<stop offset="0.297404" stop-color="#D1C1FF" stop-opacity="0.52"/>
<stop offset="1" stop-color="#D1C1FF" stop-opacity="0"/>
</radialGradient>
<radialGradient id="paint15_radial_1_4922" cx="0" cy="0" r="1" gradientUnits="userSpaceOnUse" gradientTransform="translate(120 130.15) rotate(-90) scale(2.42212 104.791)">
<stop stop-color="#2542DD" stop-opacity="0"/>
<stop offset="1" stop-color="#11195F"/>
</radialGradient>
<radialGradient id="paint16_radial_1_4922" cx="0" cy="0" r="1" gradientUnits="userSpaceOnUse" gradientTransform="translate(20 129.704) scale(113.636 199.739)">
<stop offset="0.297404" stop-color="#F5F3FA" stop-opacity="0.52"/>
<stop offset="1" stop-color="#8B72D3" stop-opacity="0"/>
</radialGradient>
<radialGradient id="paint17_radial_1_4922" cx="0" cy="0" r="1" gradientUnits="userSpaceOnUse" gradientTransform="translate(113.126 119.969) rotate(90) scale(0.881849 97.5876)">
<stop stop-color="#405EFF" stop-opacity="0"/>
<stop offset="1" stop-color="#5222DB"/>
</radialGradient>
<radialGradient id="paint18_radial_1_4922" cx="0" cy="0" r="1" gradientUnits="userSpaceOnUse" gradientTransform="translate(20 120.131) scale(105.825 72.7214)">
<stop offset="0.297404" stop-color="#D1C1FF" stop-opacity="0.52"/>
<stop offset="1" stop-color="#D1C1FF" stop-opacity="0"/>
</radialGradient>
</defs>
</svg>
